<svg id="my-svg" width="100%" xmlns="http://www.w3.org/2000/svg" xmlns:xlink="http://www.w3.org/1999/xlink" class="classDiagram" style="max-width: 1456.38px; background-color: white;" viewBox="0 0 1456.375 605.5" role="graphics-document document" aria-roledescription="class"><style>#my-svg{font-family:"trebuchet ms",verdana,arial,sans-serif;font-size:16px;fill:#333;}@keyframes edge-animation-frame{from{stroke-dashoffset:0;}}@keyframes dash{to{stroke-dashoffset:0;}}#my-svg .edge-animation-slow{stroke-dasharray:9,5!important;stroke-dashoffset:900;animation:dash 50s linear infinite;stroke-linecap:round;}#my-svg .edge-animation-fast{stroke-dasharray:9,5!important;stroke-dashoffset:900;animation:dash 20s linear infinite;stroke-linecap:round;}#my-svg .error-icon{fill:#552222;}#my-svg .error-text{fill:#552222;stroke:#552222;}#my-svg .edge-thickness-normal{stroke-width:1px;}#my-svg .edge-thickness-thick{stroke-width:3.5px;}#my-svg .edge-pattern-solid{stroke-dasharray:0;}#my-svg .edge-thickness-invisible{stroke-width:0;fill:none;}#my-svg .edge-pattern-dashed{stroke-dasharray:3;}#my-svg .edge-pattern-dotted{stroke-dasharray:2;}#my-svg .marker{fill:#333333;stroke:#333333;}#my-svg .marker.cross{stroke:#333333;}#my-svg svg{font-family:"trebuchet ms",verdana,arial,sans-serif;font-size:16px;}#my-svg p{margin:0;}#my-svg g.classGroup text{fill:#9370DB;stroke:none;font-family:"trebuchet ms",verdana,arial,sans-serif;font-size:10px;}#my-svg g.classGroup text .title{font-weight:bolder;}#my-svg .cluster-label text{fill:#333;}#my-svg .cluster-label span{color:#333;}#my-svg .cluster-label span p{background-color:transparent;}#my-svg .cluster rect{fill:#ffffde;stroke:#aaaa33;stroke-width:1px;}#my-svg .cluster text{fill:#333;}#my-svg .cluster span{color:#333;}#my-svg .nodeLabel,#my-svg .edgeLabel{color:#131300;}#my-svg .noteLabel .nodeLabel,#my-svg .noteLabel .edgeLabel{color:black;}#my-svg .edgeLabel .label rect{fill:#ECECFF;}#my-svg .label text{fill:#131300;}#my-svg .labelBkg{background:#ECECFF;}#my-svg .edgeLabel .label span{background:#ECECFF;}#my-svg .classTitle{font-weight:bolder;}#my-svg .node rect,#my-svg .node circle,#my-svg .node ellipse,#my-svg .node polygon,#my-svg .node path{fill:#ECECFF;stroke:#9370DB;stroke-width:1;}#my-svg .divider{stroke:#9370DB;stroke-width:1;}#my-svg g.clickable{cursor:pointer;}#my-svg g.classGroup rect{fill:#ECECFF;stroke:#9370DB;}#my-svg g.classGroup line{stroke:#9370DB;stroke-width:1;}#my-svg .classLabel .box{stroke:none;stroke-width:0;fill:#ECECFF;opacity:0.5;}#my-svg .classLabel .label{fill:#9370DB;font-size:10px;}#my-svg .relation{stroke:#333333;stroke-width:1;fill:none;}#my-svg .dashed-line{stroke-dasharray:3;}#my-svg .dotted-line{stroke-dasharray:1 2;}#my-svg [id$="-compositionStart"],#my-svg .composition{fill:#333333!important;stroke:#333333!important;stroke-width:1;}#my-svg [id$="-compositionEnd"],#my-svg .composition{fill:#333333!important;stroke:#333333!important;stroke-width:1;}#my-svg [id$="-dependencyStart"],#my-svg .dependency{fill:#333333!important;stroke:#333333!important;stroke-width:1;}#my-svg [id$="-dependencyEnd"],#my-svg .dependency{fill:#333333!important;stroke:#333333!important;stroke-width:1;}#my-svg [id$="-extensionStart"],#my-svg .extension{fill:transparent!important;stroke:#333333!important;stroke-width:1;}#my-svg [id$="-extensionEnd"],#my-svg .extension{fill:transparent!important;stroke:#333333!important;stroke-width:1;}#my-svg [id$="-aggregationStart"],#my-svg .aggregation{fill:transparent!important;stroke:#333333!important;stroke-width:1;}#my-svg [id$="-aggregationEnd"],#my-svg .aggregation{fill:transparent!important;stroke:#333333!important;stroke-width:1;}#my-svg [id$="-lollipopStart"],#my-svg .lollipop{fill:#ECECFF!important;stroke:#333333!important;stroke-width:1;}#my-svg [id$="-lollipopEnd"],#my-svg .lollipop{fill:#ECECFF!important;stroke:#333333!important;stroke-width:1;}#my-svg .edgeTerminals{font-size:11px;line-height:initial;}#my-svg .classTitleText{text-anchor:middle;font-size:18px;fill:#333;}#my-svg .edgeLabel[data-look="neo"]{background-color:rgba(232,232,232, 0.8);text-align:center;}#my-svg .edgeLabel[data-look="neo"] p{background-color:rgba(232,232,232, 0.8);}#my-svg .edgeLabel[data-look="neo"] rect{opacity:0.5;background-color:rgba(232,232,232, 0.8);fill:rgba(232,232,232, 0.8);}#my-svg .label-icon{display:inline-block;height:1em;overflow:visible;vertical-align:-0.125em;}#my-svg .node .label-icon path{fill:currentColor;stroke:revert;stroke-width:revert;}#my-svg .node .neo-node{stroke:#9370DB;}#my-svg [data-look="neo"].node rect,#my-svg [data-look="neo"].cluster rect,#my-svg [data-look="neo"].node polygon{stroke:#9370DB;filter:drop-shadow(1px 2px 2px rgba(185, 185, 185, 1));}#my-svg [data-look="neo"].node path{stroke:#9370DB;stroke-width:1px;}#my-svg [data-look="neo"].node .outer-path{filter:drop-shadow(1px 2px 2px rgba(185, 185, 185, 1));}#my-svg [data-look="neo"].node .neo-line path{stroke:#9370DB;filter:none;}#my-svg [data-look="neo"].node circle{stroke:#9370DB;filter:drop-shadow(1px 2px 2px rgba(185, 185, 185, 1));}#my-svg [data-look="neo"].node circle .state-start{fill:#000000;}#my-svg [data-look="neo"].icon-shape .icon{fill:#9370DB;filter:drop-shadow(1px 2px 2px rgba(185, 185, 185, 1));}#my-svg [data-look="neo"].icon-shape .icon-neo path{stroke:#9370DB;filter:drop-shadow(1px 2px 2px rgba(185, 185, 185, 1));}#my-svg :root{--mermaid-font-family:"trebuchet ms",verdana,arial,sans-serif;}</style><g><defs><marker id="my-svg_class-aggregationStart" class="marker aggregation class" refX="18" refY="7" markerWidth="190" markerHeight="240" orient="auto"><path d="M 18,7 L9,13 L1,7 L9,1 Z"/></marker></defs><defs><marker id="my-svg_class-aggregationEnd" class="marker aggregation class" refX="1" refY="7" markerWidth="20" markerHeight="28" orient="auto"><path d="M 18,7 L9,13 L1,7 L9,1 Z"/></marker></defs><defs><marker id="my-svg_class-aggregationStart-margin" class="marker aggregation class" refX="15" refY="7" markerWidth="190" markerHeight="240" orient="auto" markerUnits="userSpaceOnUse"><path d="M 18,7 L9,13 L1,7 L9,1 Z" style="stroke-width: 2;"/></marker></defs><defs><marker id="my-svg_class-aggregationEnd-margin" class="marker aggregation class" refX="1" refY="7" markerWidth="20" markerHeight="28" orient="auto" markerUnits="userSpaceOnUse"><path d="M 18,7 L9,13 L1,7 L9,1 Z" style="stroke-width: 2;"/></marker></defs><defs><marker id="my-svg_class-extensionStart" class="marker extension class" refX="18" refY="7" markerWidth="20" markerHeight="28" orient="auto" markerUnits="userSpaceOnUse"><path d="M 1,7 L18,13 V 1 Z"/></marker></defs><defs><marker id="my-svg_class-extensionEnd" class="marker extension class" refX="1" refY="7" markerWidth="20" markerHeight="28" orient="auto"><path d="M 1,1 V 13 L18,7 Z"/></marker></defs><marker id="my-svg_class-extensionStart-margin" class="marker extension class" refX="18" refY="7" markerWidth="20" markerHeight="28" orient="auto" markerUnits="userSpaceOnUse" viewBox="0 0 20 14"><polygon points="10,7 18,13 18,1" style="stroke-width: 2; stroke-dasharray: 0;"/></marker><defs><marker id="my-svg_class-extensionEnd-margin" class="marker extension class" refX="9" refY="7" markerWidth="20" markerHeight="28" orient="auto" markerUnits="userSpaceOnUse" viewBox="0 0 20 14"><polygon points="10,1 10,13 18,7" style="stroke-width: 2; stroke-dasharray: 0;"/></marker></defs><defs><marker id="my-svg_class-compositionStart" class="marker composition class" refX="18" refY="7" markerWidth="190" markerHeight="240" orient="auto"><path d="M 18,7 L9,13 L1,7 L9,1 Z"/></marker></defs><defs><marker id="my-svg_class-compositionEnd" class="marker composition class" refX="1" refY="7" markerWidth="20" markerHeight="28" orient="auto"><path d="M 18,7 L9,13 L1,7 L9,1 Z"/></marker></defs><defs><marker id="my-svg_class-compositionStart-margin" class="marker composition class" refX="15" refY="7" markerWidth="190" markerHeight="240" orient="auto" markerUnits="userSpaceOnUse"><path viewBox="0 0 15 15" d="M 18,7 L9,13 L1,7 L9,1 Z" style="stroke-width: 0;"/></marker></defs><defs><marker id="my-svg_class-compositionEnd-margin" class="marker composition class" refX="3.5" refY="7" markerWidth="20" markerHeight="28" orient="auto" markerUnits="userSpaceOnUse"><path d="M 18,7 L9,13 L1,7 L9,1 Z" style="stroke-width: 0;"/></marker></defs><defs><marker id="my-svg_class-dependencyStart" class="marker dependency class" refX="6" refY="7" markerWidth="190" markerHeight="240" orient="auto"><path d="M 5,7 L9,13 L1,7 L9,1 Z"/></marker></defs><defs><marker id="my-svg_class-dependencyEnd" class="marker dependency class" refX="13" refY="7" markerWidth="20" markerHeight="28" orient="auto"><path d="M 18,7 L9,13 L14,7 L9,1 Z"/></marker></defs><defs><marker id="my-svg_class-dependencyStart-margin" class="marker dependency class" refX="4" refY="7" markerWidth="190" markerHeight="240" orient="auto" markerUnits="userSpaceOnUse"><path d="M 5,7 L9,13 L1,7 L9,1 Z" style="stroke-width: 0;"/></marker></defs><defs><marker id="my-svg_class-dependencyEnd-margin" class="marker dependency class" refX="16" refY="7" markerWidth="20" markerHeight="28" orient="auto" markerUnits="userSpaceOnUse"><path d="M 18,7 L9,13 L14,7 L9,1 Z" style="stroke-width: 0;"/></marker></defs><defs><marker id="my-svg_class-lollipopStart" class="marker lollipop class" refX="13" refY="7" markerWidth="190" markerHeight="240" orient="auto"><circle fill="transparent" cx="7" cy="7" r="6"/></marker></defs><defs><marker id="my-svg_class-lollipopEnd" class="marker lollipop class" refX="1" refY="7" markerWidth="190" markerHeight="240" orient="auto"><circle fill="transparent" cx="7" cy="7" r="6"/></marker></defs><defs><marker id="my-svg_class-lollipopStart-margin" class="marker lollipop class" refX="13" refY="7" markerWidth="190" markerHeight="240" orient="auto" markerUnits="userSpaceOnUse"><circle fill="transparent" cx="7" cy="7" r="6" stroke-width="2"/></marker></defs><defs><marker id="my-svg_class-lollipopEnd-margin" class="marker lollipop class" refX="1" refY="7" markerWidth="190" markerHeight="240" orient="auto" markerUnits="userSpaceOnUse"><circle fill="transparent" cx="7" cy="7" r="6" stroke-width="2"/></marker></defs><g class="root"><g class="clusters"/><g class="edgePaths"><path d="M567.184,80L589.523,80C611.862,80,656.54,80,699.47,86.32C742.399,92.641,783.58,105.282,804.17,111.602L824.76,117.922" id="my-svg-id_ai_house_1" class="edge-thickness-normal edge-pattern-solid relation" style=";;;" data-edge="true" data-et="edge" data-id="id_ai_house_1" data-points="W3sieCI6NTY3LjE4MzU5Mzc1LCJ5Ijo4MH0seyJ4Ijo3MDEuMjE4NzUsInkiOjgwfSx7IngiOjgzMC40OTYwOTM3NSwieSI6MTE5LjY4Mjk4MDYzMTkzMzV9XQ==" data-look="classic" marker-end="url(#my-svg_class-dependencyEnd)"/><path d="M998.707,145.5L1020.515,145.5C1042.323,145.5,1085.939,145.5,1126.118,145.5C1166.297,145.5,1203.039,145.5,1221.41,145.5L1239.781,145.5" id="my-svg-id_house_publicdata_2" class="edge-thickness-normal edge-pattern-solid relation" style=";;;" data-edge="true" data-et="edge" data-id="id_house_publicdata_2" data-points="W3sieCI6OTk4LjcwNzAzMTI1LCJ5IjoxNDUuNX0seyJ4IjoxMTI5LjU1NDY4NzUsInkiOjE0NS41fSx7IngiOjEyNDUuNzgxMjUsInkiOjE0NS41fV0=" data-look="classic" marker-end="url(#my-svg_class-dependencyEnd)"/><path d="M569.875,419.51L591.766,410.841C613.656,402.173,657.438,384.837,702.535,376.168C747.633,367.5,794.047,367.5,817.254,367.5L840.461,367.5" id="my-svg-id_member_notice_3" class="edge-thickness-normal edge-pattern-solid relation" style=";;;" data-edge="true" data-et="edge" data-id="id_member_notice_3" data-points="W3sieCI6NTY5Ljg3NSwieSI6NDE5LjUwOTc1Mzk2NzA5ODU2fSx7IngiOjcwMS4yMTg3NSwieSI6MzY3LjV9LHsieCI6ODQ2LjQ2MDkzNzUsInkiOjM2Ny41fV0=" data-look="classic" marker-end="url(#my-svg_class-dependencyEnd)"/><path d="M569.875,485.49L591.766,494.159C613.656,502.827,657.438,520.163,697.438,528.832C737.438,537.5,773.656,537.5,791.766,537.5L809.875,537.5" id="my-svg-id_member_interest_4" class="edge-thickness-normal edge-pattern-solid relation" style=";;;" data-edge="true" data-et="edge" data-id="id_member_interest_4" data-points="W3sieCI6NTY5Ljg3NSwieSI6NDg1LjQ5MDI0NjAzMjkwMTQ0fSx7IngiOjcwMS4yMTg3NSwieSI6NTM3LjV9LHsieCI6ODE1Ljg3NSwieSI6NTM3LjV9XQ==" data-look="classic" marker-end="url(#my-svg_class-dependencyEnd)"/><path d="M165.844,156.379L184.237,143.649C202.63,130.919,239.417,105.46,278.433,92.73C317.449,80,358.695,80,379.318,80L399.941,80" id="my-svg-id_common_ai_5" class="edge-thickness-normal edge-pattern-solid relation" style=";;;" data-edge="true" data-et="edge" data-id="id_common_ai_5" data-points="W3sieCI6MTY1Ljg0Mzc1LCJ5IjoxNTYuMzc4ODE3ODk2NjQ4NX0seyJ4IjoyNzYuMjAzMTI1LCJ5Ijo4MH0seyJ4Ijo0MDUuOTQxNDA2MjUsInkiOjgwfV0=" data-look="classic" marker-end="url(#my-svg_class-dependencyEnd)"/><path d="M165.844,211L184.237,211C202.63,211,239.417,211,292.87,211C346.323,211,416.443,211,487.279,211C558.115,211,629.667,211,686.033,204.68C742.399,198.359,783.58,185.718,804.17,179.398L824.76,173.078" id="my-svg-id_common_house_6" class="edge-thickness-normal edge-pattern-solid relation" style=";;;" data-edge="true" data-et="edge" data-id="id_common_house_6" data-points="W3sieCI6MTY1Ljg0Mzc1LCJ5IjoyMTF9LHsieCI6Mjc2LjIwMzEyNSwieSI6MjExfSx7IngiOjQ4Ni41NjI1LCJ5IjoyMTF9LHsieCI6NzAxLjIxODc1LCJ5IjoyMTF9LHsieCI6ODMwLjQ5NjA5Mzc1LCJ5IjoxNzEuMzE3MDE5MzY4MDY2NX1d" data-look="classic" marker-end="url(#my-svg_class-dependencyEnd)"/><path d="M162.164,307L181.171,331.25C200.177,355.5,238.19,404,277.371,428.25C316.552,452.5,356.901,452.5,377.076,452.5L397.25,452.5" id="my-svg-id_common_member_7" class="edge-thickness-normal edge-pattern-solid relation" style=";;;" data-edge="true" data-et="edge" data-id="id_common_member_7" data-points="W3sieCI6MTYyLjE2NDExMTAyNDg0NDcxLCJ5IjozMDd9LHsieCI6Mjc2LjIwMzEyNSwieSI6NDUyLjV9LHsieCI6NDAzLjI1LCJ5Ijo0NTIuNX1d" data-look="classic" marker-end="url(#my-svg_class-dependencyEnd)"/></g><g class="edgeLabels"><g class="edgeLabel" transform="translate(701.21875, 80)"><g class="label" data-id="id_ai_house_1" transform="translate(-58.6640625, -12)"><foreignObject width="117.328125" height="24"><div xmlns="http://www.w3.org/1999/xhtml" class="labelBkg" style="display: table-cell; white-space: nowrap; line-height: 1.5; max-width: 200px; text-align: center;"><span class="edgeLabel"><p>uses deal search</p></span></div></foreignObject></g></g><g class="edgeLabel" transform="translate(1129.5546875, 145.5)"><g class="label" data-id="id_house_publicdata_2" transform="translate(-91.2265625, -12)"><foreignObject width="182.453125" height="24"><div xmlns="http://www.w3.org/1999/xhtml" class="labelBkg" style="display: table-cell; white-space: nowrap; line-height: 1.5; max-width: 200px; text-align: center;"><span class="edgeLabel"><p>imports and live searches</p></span></div></foreignObject></g></g><g class="edgeLabel" transform="translate(701.21875, 367.5)"><g class="label" data-id="id_member_notice_3" transform="translate(-89.65625, -12)"><foreignObject width="179.3125" height="24"><div xmlns="http://www.w3.org/1999/xhtml" class="labelBkg" style="display: table-cell; white-space: nowrap; line-height: 1.5; max-width: 200px; text-align: center;"><span class="edgeLabel"><p>authorizes admin notices</p></span></div></foreignObject></g></g><g class="edgeLabel" transform="translate(701.21875, 537.5)"><g class="label" data-id="id_member_interest_4" transform="translate(-58.5703125, -12)"><foreignObject width="117.140625" height="24"><div xmlns="http://www.w3.org/1999/xhtml" class="labelBkg" style="display: table-cell; white-space: nowrap; line-height: 1.5; max-width: 200px; text-align: center;"><span class="edgeLabel"><p>owns bookmarks</p></span></div></foreignObject></g></g><g class="edgeLabel" transform="translate(276.203125, 80)"><g class="label" data-id="id_common_ai_5" transform="translate(-85.359375, -12)"><foreignObject width="170.71875" height="24"><div xmlns="http://www.w3.org/1999/xhtml" class="labelBkg" style="display: table-cell; white-space: nowrap; line-height: 1.5; max-width: 200px; text-align: center;"><span class="edgeLabel"><p>config and auth support</p></span></div></foreignObject></g></g><g class="edgeLabel" transform="translate(486.5625, 211)"><g class="label" data-id="id_common_house_6" transform="translate(-100, -24)"><foreignObject width="200" height="48"><div xmlns="http://www.w3.org/1999/xhtml" class="labelBkg" style="display: table; white-space: break-spaces; line-height: 1.5; max-width: 200px; text-align: center; width: 200px;"><span class="edgeLabel"><p>shared response and region helpers</p></span></div></foreignObject></g></g><g class="edgeLabel" transform="translate(276.203125, 452.5)"><g class="label" data-id="id_common_member_7" transform="translate(-83.46875, -12)"><foreignObject width="166.9375" height="24"><div xmlns="http://www.w3.org/1999/xhtml" class="labelBkg" style="display: table-cell; white-space: nowrap; line-height: 1.5; max-width: 200px; text-align: center;"><span class="edgeLabel"><p>auth interceptor config</p></span></div></foreignObject></g></g></g><g class="nodes"><g class="node default" id="my-svg-classId-ai-0" data-look="classic" transform="translate(486.5625, 80)"><g class="basic label-container outer-path"><path d="M-80.62109375 -72 L80.62109375 -72 L80.62109375 72 L-80.62109375 72" stroke="none" stroke-width="0" fill="#ECECFF" style=""/><path d="M-80.62109375 -72 C-25.660098212634693 -72, 29.300897324730613 -72, 80.62109375 -72 M-80.62109375 -72 C-47.67155807351432 -72, -14.722022397028638 -72, 80.62109375 -72 M80.62109375 -72 C80.62109375 -22.321620973944363, 80.62109375 27.356758052111275, 80.62109375 72 M80.62109375 -72 C80.62109375 -31.001934632092414, 80.62109375 9.996130735815171, 80.62109375 72 M80.62109375 72 C38.57642497163125 72, -3.4682438067375045 72, -80.62109375 72 M80.62109375 72 C46.21704479795745 72, 11.812995845914898 72, -80.62109375 72 M-80.62109375 72 C-80.62109375 38.88043597072475, -80.62109375 5.760871941449494, -80.62109375 -72 M-80.62109375 72 C-80.62109375 33.02927766812185, -80.62109375 -5.9414446637563, -80.62109375 -72" stroke="#9370DB" stroke-width="1.3" fill="none" stroke-dasharray="0 0" style=""/></g><g class="annotation-group text" transform="translate(0, -48)"/><g class="label-group text" transform="translate(-6.6484375, -48)"><g class="label" style="font-weight: bolder" transform="translate(0,-12)"><foreignObject width="13.296875" height="24"><div xmlns="http://www.w3.org/1999/xhtml" style="display: table-cell; white-space: nowrap; line-height: 1.5; max-width: 62px; text-align: center;"><span class="nodeLabel markdown-node-label" style=""><p>ai</p></span></div></foreignObject></g></g><g class="members-group text" transform="translate(-68.62109375, 0)"><g class="label" style="" transform="translate(0,-12)"><foreignObject width="130.59375" height="24"><div xmlns="http://www.w3.org/1999/xhtml" style="display: table-cell; white-space: nowrap; line-height: 1.5; max-width: 165px; text-align: center;"><span class="nodeLabel markdown-node-label" style=""><p>assistant endpoint</p></span></div></foreignObject></g><g class="label" style="" transform="translate(0,12)"><foreignObject width="101.53125" height="24"><div xmlns="http://www.w3.org/1999/xhtml" style="display: table-cell; white-space: nowrap; line-height: 1.5; max-width: 148px; text-align: center;"><span class="nodeLabel markdown-node-label" style=""><p>Spring AI tools</p></span></div></foreignObject></g></g><g class="methods-group text" transform="translate(-68.62109375, 72)"/><g class="divider" style=""><path d="M-80.62109375 -24 C-37.59604449972689 -23.999733165061095, 5.429004750546227 -23.999466330122193, 80.62109375 -23.999 M-80.62109375 -24 C-22.460410088691518 -23.999639296113735, 35.700273572616965 -23.999278592227466, 80.62109375 -23.999" stroke="#9370DB" stroke-width="1.3" fill="none" stroke-dasharray="0 0" style=""/></g><g class="divider" style=""><path d="M-80.62109375 48 C-31.22108305158625 48.00030637149907, 18.178927646827503 48.00061274299815, 80.62109375 48.001 M-80.62109375 48 C-21.55335381509599 48.000366329314, 37.51438611980802 48.000732658628, 80.62109375 48.001" stroke="#9370DB" stroke-width="1.3" fill="none" stroke-dasharray="0 0" style=""/></g></g><g class="node default" id="my-svg-classId-house-1" data-look="classic" transform="translate(914.6015625, 145.5)"><g class="basic label-container outer-path"><path d="M-84.10546875 -72 L84.10546875 -72 L84.10546875 72 L-84.10546875 72" stroke="none" stroke-width="0" fill="#ECECFF" style=""/><path d="M-84.10546875 -72 C-39.28457848417236 -72, 5.536311781655286 -72, 84.10546875 -72 M-84.10546875 -72 C-33.145579085393486 -72, 17.81431057921303 -72, 84.10546875 -72 M84.10546875 -72 C84.10546875 -22.046131343386406, 84.10546875 27.907737313227187, 84.10546875 72 M84.10546875 -72 C84.10546875 -18.377648323953956, 84.10546875 35.24470335209209, 84.10546875 72 M84.10546875 72 C18.681604057963597 72, -46.74226063407281 72, -84.10546875 72 M84.10546875 72 C26.60777250530346 72, -30.889923739393083 72, -84.10546875 72 M-84.10546875 72 C-84.10546875 25.764901959978623, -84.10546875 -20.470196080042754, -84.10546875 -72 M-84.10546875 72 C-84.10546875 24.268473936027597, -84.10546875 -23.463052127944806, -84.10546875 -72" stroke="#9370DB" stroke-width="1.3" fill="none" stroke-dasharray="0 0" style=""/></g><g class="annotation-group text" transform="translate(0, -48)"/><g class="label-group text" transform="translate(-22.0390625, -48)"><g class="label" style="font-weight: bolder" transform="translate(0,-12)"><foreignObject width="44.078125" height="24"><div xmlns="http://www.w3.org/1999/xhtml" style="display: table-cell; white-space: nowrap; line-height: 1.5; max-width: 88px; text-align: center;"><span class="nodeLabel markdown-node-label" style=""><p>house</p></span></div></foreignObject></g></g><g class="members-group text" transform="translate(-72.10546875, 0)"><g class="label" style="" transform="translate(0,-12)"><foreignObject width="73.25" height="24"><div xmlns="http://www.w3.org/1999/xhtml" style="display: table-cell; white-space: nowrap; line-height: 1.5; max-width: 120px; text-align: center;"><span class="nodeLabel markdown-node-label" style=""><p>search API</p></span></div></foreignObject></g><g class="label" style="" transform="translate(0,12)"><foreignObject width="122.171875" height="24"><div xmlns="http://www.w3.org/1999/xhtml" style="display: table-cell; white-space: nowrap; line-height: 1.5; max-width: 160px; text-align: center;"><span class="nodeLabel markdown-node-label" style=""><p>house deal query</p></span></div></foreignObject></g></g><g class="methods-group text" transform="translate(-72.10546875, 72)"/><g class="divider" style=""><path d="M-84.10546875 -24 C-20.945387197732856 -23.99962451858071, 42.21469435453429 -23.999249037161423, 84.10546875 -23.999 M-84.10546875 -24 C-19.08404548821389 -23.999613453059425, 45.93737777357222 -23.99922690611885, 84.10546875 -23.999" stroke="#9370DB" stroke-width="1.3" fill="none" stroke-dasharray="0 0" style=""/></g><g class="divider" style=""><path d="M-84.10546875 48 C-50.3952407129503 48.00020040449532, -16.685012675900595 48.00040080899064, 84.10546875 48.001 M-84.10546875 48 C-42.47418593308996 48.00024749450562, -0.8429031161799259 48.000494989011244, 84.10546875 48.001" stroke="#9370DB" stroke-width="1.3" fill="none" stroke-dasharray="0 0" style=""/></g></g><g class="node default" id="my-svg-classId-publicdata-2" data-look="classic" transform="translate(1347.078125, 145.5)"><g class="basic label-container outer-path"><path d="M-101.296875 -72 L101.296875 -72 L101.296875 72 L-101.296875 72" stroke="none" stroke-width="0" fill="#ECECFF" style=""/><path d="M-101.296875 -72 C-48.91664259179044 -72, 3.463589816419116 -72, 101.296875 -72 M-101.296875 -72 C-23.88590904193373 -72, 53.52505691613254 -72, 101.296875 -72 M101.296875 -72 C101.296875 -42.4981716188253, 101.296875 -12.996343237650606, 101.296875 72 M101.296875 -72 C101.296875 -19.85916503085405, 101.296875 32.2816699382919, 101.296875 72 M101.296875 72 C41.46512334344628 72, -18.36662831310744 72, -101.296875 72 M101.296875 72 C32.239996981029705 72, -36.81688103794059 72, -101.296875 72 M-101.296875 72 C-101.296875 19.77254781466192, -101.296875 -32.45490437067616, -101.296875 -72 M-101.296875 72 C-101.296875 34.229430442224945, -101.296875 -3.5411391155501093, -101.296875 -72" stroke="#9370DB" stroke-width="1.3" fill="none" stroke-dasharray="0 0" style=""/></g><g class="annotation-group text" transform="translate(0, -48)"/><g class="label-group text" transform="translate(-39.21875, -48)"><g class="label" style="font-weight: bolder" transform="translate(0,-12)"><foreignObject width="78.4375" height="24"><div xmlns="http://www.w3.org/1999/xhtml" style="display: table-cell; white-space: nowrap; line-height: 1.5; max-width: 119px; text-align: center;"><span class="nodeLabel markdown-node-label" style=""><p>publicdata</p></span></div></foreignObject></g></g><g class="members-group text" transform="translate(-89.296875, 0)"><g class="label" style="" transform="translate(0,-12)"><foreignObject width="139.375" height="24"><div xmlns="http://www.w3.org/1999/xhtml" style="display: table-cell; white-space: nowrap; line-height: 1.5; max-width: 178px; text-align: center;"><span class="nodeLabel markdown-node-label" style=""><p>external API import</p></span></div></foreignObject></g><g class="label" style="" transform="translate(0,12)"><foreignObject width="123.703125" height="24"><div xmlns="http://www.w3.org/1999/xhtml" style="display: table-cell; white-space: nowrap; line-height: 1.5; max-width: 159px; text-align: center;"><span class="nodeLabel markdown-node-label" style=""><p>live search cache</p></span></div></foreignObject></g></g><g class="methods-group text" transform="translate(-89.296875, 72)"/><g class="divider" style=""><path d="M-101.296875 -24 C-30.76417650154721 -23.99965185155762, 39.76852199690558 -23.99930370311524, 101.296875 -23.999 M-101.296875 -24 C-59.0501903332988 -23.99979147093794, -16.8035056665976 -23.99958294187588, 101.296875 -23.999" stroke="#9370DB" stroke-width="1.3" fill="none" stroke-dasharray="0 0" style=""/></g><g class="divider" style=""><path d="M-101.296875 48 C-27.502969628550773 48.00036424571524, 46.290935742898455 48.00072849143047, 101.296875 48.001 M-101.296875 48 C-34.19069031351681 48.00033123521671, 32.91549437296638 48.00066247043343, 101.296875 48.001" stroke="#9370DB" stroke-width="1.3" fill="none" stroke-dasharray="0 0" style=""/></g></g><g class="node default" id="my-svg-classId-member-3" data-look="classic" transform="translate(486.5625, 452.5)"><g class="basic label-container outer-path"><path d="M-83.3125 -72 L83.3125 -72 L83.3125 72 L-83.3125 72" stroke="none" stroke-width="0" fill="#ECECFF" style=""/><path d="M-83.3125 -72 C-44.66697226625375 -72, -6.021444532507502 -72, 83.3125 -72 M-83.3125 -72 C-21.36277907920916 -72, 40.58694184158168 -72, 83.3125 -72 M83.3125 -72 C83.3125 -26.503556059779143, 83.3125 18.992887880441714, 83.3125 72 M83.3125 -72 C83.3125 -18.070005603267795, 83.3125 35.85998879346441, 83.3125 72 M83.3125 72 C46.234545737037564 72, 9.156591474075128 72, -83.3125 72 M83.3125 72 C48.58618880563015 72, 13.859877611260302 72, -83.3125 72 M-83.3125 72 C-83.3125 31.05726675950342, -83.3125 -9.88546648099316, -83.3125 -72 M-83.3125 72 C-83.3125 35.641985462475326, -83.3125 -0.7160290750493488, -83.3125 -72" stroke="#9370DB" stroke-width="1.3" fill="none" stroke-dasharray="0 0" style=""/></g><g class="annotation-group text" transform="translate(0, -48)"/><g class="label-group text" transform="translate(-31.015625, -48)"><g class="label" style="font-weight: bolder" transform="translate(0,-12)"><foreignObject width="62.03125" height="24"><div xmlns="http://www.w3.org/1999/xhtml" style="display: table-cell; white-space: nowrap; line-height: 1.5; max-width: 104px; text-align: center;"><span class="nodeLabel markdown-node-label" style=""><p>member</p></span></div></foreignObject></g></g><g class="members-group text" transform="translate(-71.3125, 0)"><g class="label" style="" transform="translate(0,-12)"><foreignObject width="111.609375" height="24"><div xmlns="http://www.w3.org/1999/xhtml" style="display: table-cell; white-space: nowrap; line-height: 1.5; max-width: 150px; text-align: center;"><span class="nodeLabel markdown-node-label" style=""><p>member profile</p></span></div></foreignObject></g><g class="label" style="" transform="translate(0,12)"><foreignObject width="67.3125" height="24"><div xmlns="http://www.w3.org/1999/xhtml" style="display: table-cell; white-space: nowrap; line-height: 1.5; max-width: 113px; text-align: center;"><span class="nodeLabel markdown-node-label" style=""><p>JWT auth</p></span></div></foreignObject></g></g><g class="methods-group text" transform="translate(-71.3125, 72)"/><g class="divider" style=""><path d="M-83.3125 -24 C-29.212498912332542 -23.99967531882318, 24.887502175334916 -23.99935063764636, 83.3125 -23.999 M-83.3125 -24 C-48.33708528853436 -23.99979009503549, -13.361670577068722 -23.99958019007098, 83.3125 -23.999" stroke="#9370DB" stroke-width="1.3" fill="none" stroke-dasharray="0 0" style=""/></g><g class="divider" style=""><path d="M-83.3125 48 C-19.160434570262296 48.00038500864474, 44.99163085947541 48.000770017289476, 83.3125 48.001 M-83.3125 48 C-28.680751104182995 48.00032787246149, 25.95099779163401 48.00065574492298, 83.3125 48.001" stroke="#9370DB" stroke-width="1.3" fill="none" stroke-dasharray="0 0" style=""/></g></g><g class="node default" id="my-svg-classId-notice-4" data-look="classic" transform="translate(914.6015625, 367.5)"><g class="basic label-container outer-path"><path d="M-68.140625 -60 L68.140625 -60 L68.140625 60 L-68.140625 60" stroke="none" stroke-width="0" fill="#ECECFF" style=""/><path d="M-68.140625 -60 C-36.62655025252623 -60, -5.112475505052451 -60, 68.140625 -60 M-68.140625 -60 C-40.680215699876655 -60, -13.21980639975331 -60, 68.140625 -60 M68.140625 -60 C68.140625 -14.577253650483037, 68.140625 30.845492699033926, 68.140625 60 M68.140625 -60 C68.140625 -31.8131909488817, 68.140625 -3.6263818977634017, 68.140625 60 M68.140625 60 C33.67765938091423 60, -0.7853062381715432 60, -68.140625 60 M68.140625 60 C24.345252105687422 60, -19.450120788625156 60, -68.140625 60 M-68.140625 60 C-68.140625 15.100992947198655, -68.140625 -29.79801410560269, -68.140625 -60 M-68.140625 60 C-68.140625 19.37814888467387, -68.140625 -21.24370223065226, -68.140625 -60" stroke="#9370DB" stroke-width="1.3" fill="none" stroke-dasharray="0 0" style=""/></g><g class="annotation-group text" transform="translate(0, -36)"/><g class="label-group text" transform="translate(-23.5, -36)"><g class="label" style="font-weight: bolder" transform="translate(0,-12)"><foreignObject width="47" height="24"><div xmlns="http://www.w3.org/1999/xhtml" style="display: table-cell; white-space: nowrap; line-height: 1.5; max-width: 90px; text-align: center;"><span class="nodeLabel markdown-node-label" style=""><p>notice</p></span></div></foreignObject></g></g><g class="members-group text" transform="translate(-56.140625, 12)"><g class="label" style="" transform="translate(0,-12)"><foreignObject width="88.78125" height="24"><div xmlns="http://www.w3.org/1999/xhtml" style="display: table-cell; white-space: nowrap; line-height: 1.5; max-width: 139px; text-align: center;"><span class="nodeLabel markdown-node-label" style=""><p>notice CRUD</p></span></div></foreignObject></g></g><g class="methods-group text" transform="translate(-56.140625, 60)"/><g class="divider" style=""><path d="M-68.140625 -12 C-23.457515536755317 -11.999672125773257, 21.225593926489367 -11.999344251546516, 68.140625 -11.999 M-68.140625 -12 C-27.25599307812346 -11.999699998114767, 13.62863884375308 -11.999399996229535, 68.140625 -11.999" stroke="#9370DB" stroke-width="1.3" fill="none" stroke-dasharray="0 0" style=""/></g><g class="divider" style=""><path d="M-68.140625 36 C-22.9259541758005 36.00033177469992, 22.288716648399003 36.000663549399846, 68.140625 36.001 M-68.140625 36 C-18.001706206218614 36.00036790768205, 32.13721258756277 36.00073581536409, 68.140625 36.001" stroke="#9370DB" stroke-width="1.3" fill="none" stroke-dasharray="0 0" style=""/></g></g><g class="node default" id="my-svg-classId-interest-5" data-look="classic" transform="translate(914.6015625, 537.5)"><g class="basic label-container outer-path"><path d="M-98.7265625 -60 L98.7265625 -60 L98.7265625 60 L-98.7265625 60" stroke="none" stroke-width="0" fill="#ECECFF" style=""/><path d="M-98.7265625 -60 C-52.31903618575017 -60, -5.911509871500343 -60, 98.7265625 -60 M-98.7265625 -60 C-54.44898095634482 -60, -10.171399412689638 -60, 98.7265625 -60 M98.7265625 -60 C98.7265625 -33.35482334751442, 98.7265625 -6.709646695028837, 98.7265625 60 M98.7265625 -60 C98.7265625 -17.530959945238678, 98.7265625 24.938080109522645, 98.7265625 60 M98.7265625 60 C50.095788564017596 60, 1.465014628035192 60, -98.7265625 60 M98.7265625 60 C43.54132163652376 60, -11.643919226952477 60, -98.7265625 60 M-98.7265625 60 C-98.7265625 27.257154799593437, -98.7265625 -5.485690400813127, -98.7265625 -60 M-98.7265625 60 C-98.7265625 30.592507877313636, -98.7265625 1.1850157546272726, -98.7265625 -60" stroke="#9370DB" stroke-width="1.3" fill="none" stroke-dasharray="0 0" style=""/></g><g class="annotation-group text" transform="translate(0, -36)"/><g class="label-group text" transform="translate(-29.515625, -36)"><g class="label" style="font-weight: bolder" transform="translate(0,-12)"><foreignObject width="59.03125" height="24"><div xmlns="http://www.w3.org/1999/xhtml" style="display: table-cell; white-space: nowrap; line-height: 1.5; max-width: 98px; text-align: center;"><span class="nodeLabel markdown-node-label" style=""><p>interest</p></span></div></foreignObject></g></g><g class="members-group text" transform="translate(-86.7265625, 12)"><g class="label" style="" transform="translate(0,-12)"><foreignObject width="143.9375" height="24"><div xmlns="http://www.w3.org/1999/xhtml" style="display: table-cell; white-space: nowrap; line-height: 1.5; max-width: 182px; text-align: center;"><span class="nodeLabel markdown-node-label" style=""><p>bookmarked regions</p></span></div></foreignObject></g></g><g class="methods-group text" transform="translate(-86.7265625, 60)"/><g class="divider" style=""><path d="M-98.7265625 -12 C-46.39515722029066 -11.999734967956169, 5.9362480594186735 -11.999469935912337, 98.7265625 -11.999 M-98.7265625 -12 C-58.889457375640845 -11.999798245253782, -19.05235225128169 -11.999596490507564, 98.7265625 -11.999" stroke="#9370DB" stroke-width="1.3" fill="none" stroke-dasharray="0 0" style=""/></g><g class="divider" style=""><path d="M-98.7265625 36 C-54.614036241652315 36.000223407587285, -10.50150998330463 36.00044681517457, 98.7265625 36.001 M-98.7265625 36 C-47.64188342182222 36.000258718007515, 3.442795656355557 36.00051743601504, 98.7265625 36.001" stroke="#9370DB" stroke-width="1.3" fill="none" stroke-dasharray="0 0" style=""/></g></g><g class="node default" id="my-svg-classId-common-6" data-look="classic" transform="translate(86.921875, 211)"><g class="basic label-container outer-path"><path d="M-78.921875 -96 L78.921875 -96 L78.921875 96 L-78.921875 96" stroke="none" stroke-width="0" fill="#ECECFF" style=""/><path d="M-78.921875 -96 C-33.06684808130527 -96, 12.788178837389466 -96, 78.921875 -96 M-78.921875 -96 C-31.109198232374084 -96, 16.703478535251833 -96, 78.921875 -96 M78.921875 -96 C78.921875 -53.76782457482757, 78.921875 -11.535649149655143, 78.921875 96 M78.921875 -96 C78.921875 -57.59002269493585, 78.921875 -19.180045389871694, 78.921875 96 M78.921875 96 C41.21380651310445 96, 3.5057380262089026 96, -78.921875 96 M78.921875 96 C19.505863852545218 96, -39.910147294909564 96, -78.921875 96 M-78.921875 96 C-78.921875 33.15851526466914, -78.921875 -29.682969470661718, -78.921875 -96 M-78.921875 96 C-78.921875 21.005926365141164, -78.921875 -53.98814726971767, -78.921875 -96" stroke="#9370DB" stroke-width="1.3" fill="none" stroke-dasharray="0 0" style=""/></g><g class="annotation-group text" transform="translate(0, -72)"/><g class="label-group text" transform="translate(-31.625, -72)"><g class="label" style="font-weight: bolder" transform="translate(0,-12)"><foreignObject width="63.25" height="24"><div xmlns="http://www.w3.org/1999/xhtml" style="display: table-cell; white-space: nowrap; line-height: 1.5; max-width: 107px; text-align: center;"><span class="nodeLabel markdown-node-label" style=""><p>common</p></span></div></foreignObject></g></g><g class="members-group text" transform="translate(-66.921875, -24)"><g class="label" style="" transform="translate(0,-12)"><foreignObject width="62.875" height="24"><div xmlns="http://www.w3.org/1999/xhtml" style="display: table-cell; white-space: nowrap; line-height: 1.5; max-width: 107px; text-align: center;"><span class="nodeLabel markdown-node-label" style=""><p>response</p></span></div></foreignObject></g><g class="label" style="" transform="translate(0,12)"><foreignObject width="43.765625" height="24"><div xmlns="http://www.w3.org/1999/xhtml" style="display: table-cell; white-space: nowrap; line-height: 1.5; max-width: 91px; text-align: center;"><span class="nodeLabel markdown-node-label" style=""><p>config</p></span></div></foreignObject></g><g class="label" style="" transform="translate(0,36)"><foreignObject width="45.6875" height="24"><div xmlns="http://www.w3.org/1999/xhtml" style="display: table-cell; white-space: nowrap; line-height: 1.5; max-width: 91px; text-align: center;"><span class="nodeLabel markdown-node-label" style=""><p>health</p></span></div></foreignObject></g><g class="label" style="" transform="translate(0,60)"><foreignObject width="102.21875" height="24"><div xmlns="http://www.w3.org/1999/xhtml" style="display: table-cell; white-space: nowrap; line-height: 1.5; max-width: 142px; text-align: center;"><span class="nodeLabel markdown-node-label" style=""><p>region helpers</p></span></div></foreignObject></g></g><g class="methods-group text" transform="translate(-66.921875, 96)"/><g class="divider" style=""><path d="M-78.921875 -48 C-20.474101302528872 -47.99962971119416, 37.973672394942255 -47.99925942238831, 78.921875 -47.999 M-78.921875 -48 C-21.112433648437147 -47.99963375527158, 36.697007703125706 -47.99926751054316, 78.921875 -47.999" stroke="#9370DB" stroke-width="1.3" fill="none" stroke-dasharray="0 0" style=""/></g><g class="divider" style=""><path d="M-78.921875 72 C-47.23815871158082 72.00020072835503, -15.554442423161653 72.00040145671005, 78.921875 72.001 M-78.921875 72 C-43.29185768134386 72.00022572966823, -7.661840362687727 72.00045145933645, 78.921875 72.001" stroke="#9370DB" stroke-width="1.3" fill="none" stroke-dasharray="0 0" style=""/></g></g></g></g></g><defs><filter id="my-svg-drop-shadow" height="130%" width="130%"><feDropShadow dx="4" dy="4" stdDeviation="0" flood-opacity="0.06" flood-color="#000000"/></filter></defs><defs><filter id="my-svg-drop-shadow-small" height="150%" width="150%"><feDropShadow dx="2" dy="2" stdDeviation="0" flood-opacity="0.06" flood-color="#000000"/></filter></defs></svg>