<svg id="my-svg" width="100%" xmlns="http://www.w3.org/2000/svg" xmlns:xlink="http://www.w3.org/1999/xlink" class="erDiagram" style="max-width: 755.5px; background-color: white;" viewBox="0 0 755.5 614.5" role="graphics-document document" aria-roledescription="er"><style>#my-svg{font-family:"trebuchet ms",verdana,arial,sans-serif;font-size:16px;fill:#333;}@keyframes edge-animation-frame{from{stroke-dashoffset:0;}}@keyframes dash{to{stroke-dashoffset:0;}}#my-svg .edge-animation-slow{stroke-dasharray:9,5!important;stroke-dashoffset:900;animation:dash 50s linear infinite;stroke-linecap:round;}#my-svg .edge-animation-fast{stroke-dasharray:9,5!important;stroke-dashoffset:900;animation:dash 20s linear infinite;stroke-linecap:round;}#my-svg .error-icon{fill:#552222;}#my-svg .error-text{fill:#552222;stroke:#552222;}#my-svg .edge-thickness-normal{stroke-width:1px;}#my-svg .edge-thickness-thick{stroke-width:3.5px;}#my-svg .edge-pattern-solid{stroke-dasharray:0;}#my-svg .edge-thickness-invisible{stroke-width:0;fill:none;}#my-svg .edge-pattern-dashed{stroke-dasharray:3;}#my-svg .edge-pattern-dotted{stroke-dasharray:2;}#my-svg .marker{fill:#333333;stroke:#333333;}#my-svg .marker.cross{stroke:#333333;}#my-svg svg{font-family:"trebuchet ms",verdana,arial,sans-serif;font-size:16px;}#my-svg p{margin:0;}#my-svg .entityBox{fill:#ECECFF;stroke:#9370DB;}#my-svg .relationshipLabelBox{fill:hsl(80, 100%, 96.2745098039%);opacity:0.7;background-color:hsl(80, 100%, 96.2745098039%);}#my-svg .relationshipLabelBox rect{opacity:0.5;}#my-svg .labelBkg{background-color:rgba(248.6666666666, 255, 235.9999999999, 0.5);}#my-svg .edgeLabel{background-color:rgba(232,232,232, 0.8);}#my-svg .edgeLabel .label rect{fill:rgba(232,232,232, 0.8);}#my-svg .edgeLabel .label text{fill:#333;}#my-svg .edgeLabel .label{fill:#9370DB;font-size:14px;}#my-svg .label{font-family:"trebuchet ms",verdana,arial,sans-serif;color:#333;}#my-svg .edge-pattern-dashed{stroke-dasharray:8,8;}#my-svg .node rect,#my-svg .node circle,#my-svg .node ellipse,#my-svg .node polygon{fill:#ECECFF;stroke:#9370DB;stroke-width:1px;}#my-svg .relationshipLine{stroke:#333333;stroke-width:1px;fill:none;}#my-svg .marker{fill:none!important;stroke:#333333!important;stroke-width:1;}#my-svg [data-look=neo].labelBkg{background-color:rgba(248.6666666666, 255, 235.9999999999, 0.5);}#my-svg .node .neo-node{stroke:#9370DB;}#my-svg [data-look="neo"].node rect,#my-svg [data-look="neo"].cluster rect,#my-svg [data-look="neo"].node polygon{stroke:#9370DB;filter:drop-shadow(1px 2px 2px rgba(185, 185, 185, 1));}#my-svg [data-look="neo"].node path{stroke:#9370DB;stroke-width:1px;}#my-svg [data-look="neo"].node .outer-path{filter:drop-shadow(1px 2px 2px rgba(185, 185, 185, 1));}#my-svg [data-look="neo"].node .neo-line path{stroke:#9370DB;filter:none;}#my-svg [data-look="neo"].node circle{stroke:#9370DB;filter:drop-shadow(1px 2px 2px rgba(185, 185, 185, 1));}#my-svg [data-look="neo"].node circle .state-start{fill:#000000;}#my-svg [data-look="neo"].icon-shape .icon{fill:#9370DB;filter:drop-shadow(1px 2px 2px rgba(185, 185, 185, 1));}#my-svg [data-look="neo"].icon-shape .icon-neo path{stroke:#9370DB;filter:drop-shadow(1px 2px 2px rgba(185, 185, 185, 1));}#my-svg :root{--mermaid-font-family:"trebuchet ms",verdana,arial,sans-serif;}</style><g><defs><marker id="my-svg_er-onlyOneStart" class="marker onlyOne er" refX="0" refY="9" markerWidth="18" markerHeight="18" orient="auto"><path d="M9,0 L9,18 M15,0 L15,18"/></marker></defs><defs><marker id="my-svg_er-onlyOneEnd" class="marker onlyOne er" refX="18" refY="9" markerWidth="18" markerHeight="18" orient="auto"><path d="M3,0 L3,18 M9,0 L9,18"/></marker></defs><defs><marker id="my-svg_er-zeroOrOneStart" class="marker zeroOrOne er" refX="0" refY="9" markerWidth="30" markerHeight="18" orient="auto"><circle fill="white" cx="21" cy="9" r="6"/><path d="M9,0 L9,18"/></marker></defs><defs><marker id="my-svg_er-zeroOrOneEnd" class="marker zeroOrOne er" refX="30" refY="9" markerWidth="30" markerHeight="18" orient="auto"><circle fill="white" cx="9" cy="9" r="6"/><path d="M21,0 L21,18"/></marker></defs><defs><marker id="my-svg_er-oneOrMoreStart" class="marker oneOrMore er" refX="18" refY="18" markerWidth="45" markerHeight="36" orient="auto"><path d="M0,18 Q 18,0 36,18 Q 18,36 0,18 M42,9 L42,27"/></marker></defs><defs><marker id="my-svg_er-oneOrMoreEnd" class="marker oneOrMore er" refX="27" refY="18" markerWidth="45" markerHeight="36" orient="auto"><path d="M3,9 L3,27 M9,18 Q27,0 45,18 Q27,36 9,18"/></marker></defs><defs><marker id="my-svg_er-zeroOrMoreStart" class="marker zeroOrMore er" refX="18" refY="18" markerWidth="57" markerHeight="36" orient="auto"><circle fill="white" cx="48" cy="18" r="6"/><path d="M0,18 Q18,0 36,18 Q18,36 0,18"/></marker></defs><defs><marker id="my-svg_er-zeroOrMoreEnd" class="marker zeroOrMore er" refX="39" refY="18" markerWidth="57" markerHeight="36" orient="auto"><circle fill="white" cx="9" cy="18" r="6"/><path d="M21,18 Q39,0 57,18 Q39,36 21,18"/></marker></defs><g class="root"><g class="clusters"/><g class="edgePaths"/><g class="edgeLabels"/><g class="nodes"><g class="node default" id="my-svg-entity-PUBLIC_DATA_IMPORT_BATCHES-0" data-look="classic" transform="translate(377.75, 307.25)"><g class="outer-path" style=""><path d="M-369.75 -299.25 L369.75 -299.25 L369.75 299.25 L-369.75 299.25" stroke="none" stroke-width="0" fill="#ECECFF"/><path d="M-369.75 -299.25 C-214.07182306378408 -299.25, -58.39364612756816 -299.25, 369.75 -299.25 M-369.75 -299.25 C-203.58747453303783 -299.25, -37.42494906607567 -299.25, 369.75 -299.25 M369.75 -299.25 C369.75 -101.09432849570038, 369.75 97.06134300859924, 369.75 299.25 M369.75 -299.25 C369.75 -177.15457189666884, 369.75 -55.05914379333768, 369.75 299.25 M369.75 299.25 C186.1582176575329 299.25, 2.566435315065803 299.25, -369.75 299.25 M369.75 299.25 C152.27752562733022 299.25, -65.19494874533956 299.25, -369.75 299.25 M-369.75 299.25 C-369.75 134.89746158418376, -369.75 -29.455076831632482, -369.75 -299.25 M-369.75 299.25 C-369.75 77.97087639421386, -369.75 -143.30824721157228, -369.75 -299.25" stroke="#9370DB" stroke-width="1.3" fill="none" stroke-dasharray="0 0"/></g><g style="" class="row-rect-odd"><path d="M-369.75 -256.5 L369.75 -256.5 L369.75 -213.75 L-369.75 -213.75" stroke="none" stroke-width="0" fill="hsl(240, 100%, 100%)"/><path d="M-369.75 -256.5 C-188.55145761803388 -256.5, -7.3529152360677585 -256.5, 369.75 -256.5 M-369.75 -256.5 C-144.6684458596905 -256.5, 80.41310828061899 -256.5, 369.75 -256.5 M369.75 -256.5 C369.75 -241.281103098811, 369.75 -226.06220619762198, 369.75 -213.75 M369.75 -256.5 C369.75 -241.17942412474164, 369.75 -225.8588482494833, 369.75 -213.75 M369.75 -213.75 C206.17119638786392 -213.75, 42.59239277572783 -213.75, -369.75 -213.75 M369.75 -213.75 C89.35491559496069 -213.75, -191.04016881007863 -213.75, -369.75 -213.75 M-369.75 -213.75 C-369.75 -228.2616921004682, -369.75 -242.77338420093636, -369.75 -256.5 M-369.75 -213.75 C-369.75 -229.54436512576666, -369.75 -245.33873025153335, -369.75 -256.5" stroke="#9370DB" stroke-width="1.3" fill="none" stroke-dasharray="0 0"/></g><g style="" class="row-rect-even"><path d="M-369.75 -213.75 L369.75 -213.75 L369.75 -171 L-369.75 -171" stroke="none" stroke-width="0" fill="hsl(240, 100%, 97.2745098039%)"/><path d="M-369.75 -213.75 C-179.54889696795595 -213.75, 10.652206064088091 -213.75, 369.75 -213.75 M-369.75 -213.75 C-100.26900935171096 -213.75, 169.21198129657807 -213.75, 369.75 -213.75 M369.75 -213.75 C369.75 -197.14866049229846, 369.75 -180.54732098459695, 369.75 -171 M369.75 -213.75 C369.75 -200.10570965332843, 369.75 -186.4614193066569, 369.75 -171 M369.75 -171 C171.42245133808962 -171, -26.90509732382077 -171, -369.75 -171 M369.75 -171 C100.50106592570819 -171, -168.74786814858362 -171, -369.75 -171 M-369.75 -171 C-369.75 -185.7069107112212, -369.75 -200.4138214224424, -369.75 -213.75 M-369.75 -171 C-369.75 -183.8539366517166, -369.75 -196.70787330343316, -369.75 -213.75" stroke="#9370DB" stroke-width="1.3" fill="none" stroke-dasharray="0 0"/></g><g style="" class="row-rect-odd"><path d="M-369.75 -171 L369.75 -171 L369.75 -128.25 L-369.75 -128.25" stroke="none" stroke-width="0" fill="hsl(240, 100%, 100%)"/><path d="M-369.75 -171 C-182.47429471581634 -171, 4.8014105683673165 -171, 369.75 -171 M-369.75 -171 C-95.46455642550734 -171, 178.82088714898532 -171, 369.75 -171 M369.75 -171 C369.75 -159.96888973211293, 369.75 -148.93777946422586, 369.75 -128.25 M369.75 -171 C369.75 -156.99037237299234, 369.75 -142.98074474598465, 369.75 -128.25 M369.75 -128.25 C182.80154216046566 -128.25, -4.146915679068684 -128.25, -369.75 -128.25 M369.75 -128.25 C95.57607453287699 -128.25, -178.59785093424603 -128.25, -369.75 -128.25 M-369.75 -128.25 C-369.75 -137.8402411804207, -369.75 -147.4304823608414, -369.75 -171 M-369.75 -128.25 C-369.75 -142.92563924012345, -369.75 -157.60127848024692, -369.75 -171" stroke="#9370DB" stroke-width="1.3" fill="none" stroke-dasharray="0 0"/></g><g style="" class="row-rect-even"><path d="M-369.75 -128.25 L369.75 -128.25 L369.75 -85.5 L-369.75 -85.5" stroke="none" stroke-width="0" fill="hsl(240, 100%, 97.2745098039%)"/><path d="M-369.75 -128.25 C-187.32088547723836 -128.25, -4.891770954476726 -128.25, 369.75 -128.25 M-369.75 -128.25 C-79.71329173323034 -128.25, 210.32341653353933 -128.25, 369.75 -128.25 M369.75 -128.25 C369.75 -115.57284002520257, 369.75 -102.89568005040513, 369.75 -85.5 M369.75 -128.25 C369.75 -113.75489234086663, 369.75 -99.25978468173327, 369.75 -85.5 M369.75 -85.5 C141.06716259966345 -85.5, -87.6156748006731 -85.5, -369.75 -85.5 M369.75 -85.5 C106.28082737523391 -85.5, -157.18834524953218 -85.5, -369.75 -85.5 M-369.75 -85.5 C-369.75 -100.2333576505505, -369.75 -114.96671530110099, -369.75 -128.25 M-369.75 -85.5 C-369.75 -94.6554441376043, -369.75 -103.8108882752086, -369.75 -128.25" stroke="#9370DB" stroke-width="1.3" fill="none" stroke-dasharray="0 0"/></g><g style="" class="row-rect-odd"><path d="M-369.75 -85.5 L369.75 -85.5 L369.75 -42.75 L-369.75 -42.75" stroke="none" stroke-width="0" fill="hsl(240, 100%, 100%)"/><path d="M-369.75 -85.5 C-82.67576625033809 -85.5, 204.39846749932383 -85.5, 369.75 -85.5 M-369.75 -85.5 C-143.81442305977768 -85.5, 82.12115388044464 -85.5, 369.75 -85.5 M369.75 -85.5 C369.75 -75.16800308995484, 369.75 -64.83600617990967, 369.75 -42.75 M369.75 -85.5 C369.75 -71.76168096994968, 369.75 -58.023361939899345, 369.75 -42.75 M369.75 -42.75 C122.82025623810642 -42.75, -124.10948752378715 -42.75, -369.75 -42.75 M369.75 -42.75 C210.46429112748544 -42.75, 51.17858225497088 -42.75, -369.75 -42.75 M-369.75 -42.75 C-369.75 -58.76471228231587, -369.75 -74.77942456463174, -369.75 -85.5 M-369.75 -42.75 C-369.75 -54.5017281107753, -369.75 -66.2534562215506, -369.75 -85.5" stroke="#9370DB" stroke-width="1.3" fill="none" stroke-dasharray="0 0"/></g><g style="" class="row-rect-even"><path d="M-369.75 -42.75 L369.75 -42.75 L369.75 0 L-369.75 0" stroke="none" stroke-width="0" fill="hsl(240, 100%, 97.2745098039%)"/><path d="M-369.75 -42.75 C-113.2635605260486 -42.75, 143.2228789479028 -42.75, 369.75 -42.75 M-369.75 -42.75 C-151.84848602445902 -42.75, 66.05302795108196 -42.75, 369.75 -42.75 M369.75 -42.75 C369.75 -26.89359466469137, 369.75 -11.037189329382741, 369.75 0 M369.75 -42.75 C369.75 -30.130410710690924, 369.75 -17.51082142138185, 369.75 0 M369.75 0 C211.72379491325972 0, 53.69758982651945 0, -369.75 0 M369.75 0 C177.24735137216078 0, -15.255297255678443 0, -369.75 0 M-369.75 0 C-369.75 -15.267296159633842, -369.75 -30.534592319267684, -369.75 -42.75 M-369.75 0 C-369.75 -10.317884153957607, -369.75 -20.635768307915214, -369.75 -42.75" stroke="#9370DB" stroke-width="1.3" fill="none" stroke-dasharray="0 0"/></g><g style="" class="row-rect-odd"><path d="M-369.75 0 L369.75 0 L369.75 42.75 L-369.75 42.75" stroke="none" stroke-width="0" fill="hsl(240, 100%, 100%)"/><path d="M-369.75 0 C-123.05344950192796 0, 123.64310099614409 0, 369.75 0 M-369.75 0 C-91.81508117529904 0, 186.11983764940192 0, 369.75 0 M369.75 0 C369.75 16.33746093602348, 369.75 32.67492187204696, 369.75 42.75 M369.75 0 C369.75 9.074446479932153, 369.75 18.148892959864305, 369.75 42.75 M369.75 42.75 C122.79622667260392 42.75, -124.15754665479216 42.75, -369.75 42.75 M369.75 42.75 C189.3255732535874 42.75, 8.901146507174815 42.75, -369.75 42.75 M-369.75 42.75 C-369.75 29.672775218206553, -369.75 16.59555043641311, -369.75 0 M-369.75 42.75 C-369.75 32.142503570606365, -369.75 21.535007141212734, -369.75 0" stroke="#9370DB" stroke-width="1.3" fill="none" stroke-dasharray="0 0"/></g><g style="" class="row-rect-even"><path d="M-369.75 42.75 L369.75 42.75 L369.75 85.5 L-369.75 85.5" stroke="none" stroke-width="0" fill="hsl(240, 100%, 97.2745098039%)"/><path d="M-369.75 42.75 C-190.75035897959356 42.75, -11.750717959187114 42.75, 369.75 42.75 M-369.75 42.75 C-201.33488620082005 42.75, -32.9197724016401 42.75, 369.75 42.75 M369.75 42.75 C369.75 58.997169892645715, 369.75 75.24433978529143, 369.75 85.5 M369.75 42.75 C369.75 51.74949068788729, 369.75 60.74898137577458, 369.75 85.5 M369.75 85.5 C83.70872861744567 85.5, -202.33254276510866 85.5, -369.75 85.5 M369.75 85.5 C90.1478093964127 85.5, -189.4543812071746 85.5, -369.75 85.5 M-369.75 85.5 C-369.75 76.12691682778899, -369.75 66.75383365557798, -369.75 42.75 M-369.75 85.5 C-369.75 72.11620028015291, -369.75 58.73240056030582, -369.75 42.75" stroke="#9370DB" stroke-width="1.3" fill="none" stroke-dasharray="0 0"/></g><g style="" class="row-rect-odd"><path d="M-369.75 85.5 L369.75 85.5 L369.75 128.25 L-369.75 128.25" stroke="none" stroke-width="0" fill="hsl(240, 100%, 100%)"/><path d="M-369.75 85.5 C-208.76994396887756 85.5, -47.78988793775511 85.5, 369.75 85.5 M-369.75 85.5 C-153.78126881487296 85.5, 62.18746237025408 85.5, 369.75 85.5 M369.75 85.5 C369.75 100.62683997556272, 369.75 115.75367995112545, 369.75 128.25 M369.75 85.5 C369.75 100.46766959564856, 369.75 115.43533919129712, 369.75 128.25 M369.75 128.25 C102.27692587639001 128.25, -165.19614824721998 128.25, -369.75 128.25 M369.75 128.25 C160.85436291413154 128.25, -48.041274171736916 128.25, -369.75 128.25 M-369.75 128.25 C-369.75 112.86340343685455, -369.75 97.47680687370911, -369.75 85.5 M-369.75 128.25 C-369.75 115.67522006987168, -369.75 103.10044013974337, -369.75 85.5" stroke="#9370DB" stroke-width="1.3" fill="none" stroke-dasharray="0 0"/></g><g style="" class="row-rect-even"><path d="M-369.75 128.25 L369.75 128.25 L369.75 171 L-369.75 171" stroke="none" stroke-width="0" fill="hsl(240, 100%, 97.2745098039%)"/><path d="M-369.75 128.25 C-77.06775304865084 128.25, 215.6144939026983 128.25, 369.75 128.25 M-369.75 128.25 C-160.4667181656103 128.25, 48.816563668779395 128.25, 369.75 128.25 M369.75 128.25 C369.75 137.05249227933834, 369.75 145.85498455867668, 369.75 171 M369.75 128.25 C369.75 137.04639785779585, 369.75 145.84279571559173, 369.75 171 M369.75 171 C170.41601580163965 171, -28.91796839672071 171, -369.75 171 M369.75 171 C125.29148709137667 171, -119.16702581724667 171, -369.75 171 M-369.75 171 C-369.75 159.01354627316076, -369.75 147.0270925463215, -369.75 128.25 M-369.75 171 C-369.75 155.15382078850106, -369.75 139.3076415770021, -369.75 128.25" stroke="#9370DB" stroke-width="1.3" fill="none" stroke-dasharray="0 0"/></g><g style="" class="row-rect-odd"><path d="M-369.75 171 L369.75 171 L369.75 213.75 L-369.75 213.75" stroke="none" stroke-width="0" fill="hsl(240, 100%, 100%)"/><path d="M-369.75 171 C-83.82722112501239 171, 202.09555774997523 171, 369.75 171 M-369.75 171 C-143.86844347754467 171, 82.01311304491065 171, 369.75 171 M369.75 171 C369.75 180.75829996928758, 369.75 190.51659993857515, 369.75 213.75 M369.75 171 C369.75 182.02211153474528, 369.75 193.04422306949056, 369.75 213.75 M369.75 213.75 C81.43077289379949 213.75, -206.88845421240103 213.75, -369.75 213.75 M369.75 213.75 C140.35846963778152 213.75, -89.03306072443695 213.75, -369.75 213.75 M-369.75 213.75 C-369.75 200.8984733378917, -369.75 188.0469466757834, -369.75 171 M-369.75 213.75 C-369.75 200.9573189968056, -369.75 188.16463799361122, -369.75 171" stroke="#9370DB" stroke-width="1.3" fill="none" stroke-dasharray="0 0"/></g><g style="" class="row-rect-even"><path d="M-369.75 213.75 L369.75 213.75 L369.75 256.5 L-369.75 256.5" stroke="none" stroke-width="0" fill="hsl(240, 100%, 97.2745098039%)"/><path d="M-369.75 213.75 C-136.5292786108934 213.75, 96.69144277821317 213.75, 369.75 213.75 M-369.75 213.75 C-75.04052404506558 213.75, 219.66895190986884 213.75, 369.75 213.75 M369.75 213.75 C369.75 228.79618582921017, 369.75 243.84237165842038, 369.75 256.5 M369.75 213.75 C369.75 228.54879420923552, 369.75 243.34758841847102, 369.75 256.5 M369.75 256.5 C165.55256655055607 256.5, -38.64486689888787 256.5, -369.75 256.5 M369.75 256.5 C125.37326023988038 256.5, -119.00347952023924 256.5, -369.75 256.5 M-369.75 256.5 C-369.75 245.56938259964858, -369.75 234.63876519929713, -369.75 213.75 M-369.75 256.5 C-369.75 244.58661922486976, -369.75 232.67323844973953, -369.75 213.75" stroke="#9370DB" stroke-width="1.3" fill="none" stroke-dasharray="0 0"/></g><g style="" class="row-rect-odd"><path d="M-369.75 256.5 L369.75 256.5 L369.75 299.25 L-369.75 299.25" stroke="none" stroke-width="0" fill="hsl(240, 100%, 100%)"/><path d="M-369.75 256.5 C-77.87639600235866 256.5, 213.99720799528268 256.5, 369.75 256.5 M-369.75 256.5 C-82.52983859803248 256.5, 204.69032280393503 256.5, 369.75 256.5 M369.75 256.5 C369.75 267.5880200697409, 369.75 278.6760401394817, 369.75 299.25 M369.75 256.5 C369.75 266.6681189616773, 369.75 276.83623792335453, 369.75 299.25 M369.75 299.25 C100.45780417282464 299.25, -168.83439165435072 299.25, -369.75 299.25 M369.75 299.25 C219.53667768824715 299.25, 69.3233553764943 299.25, -369.75 299.25 M-369.75 299.25 C-369.75 283.2046512044739, -369.75 267.1593024089478, -369.75 256.5 M-369.75 299.25 C-369.75 290.5951713841195, -369.75 281.94034276823896, -369.75 256.5" stroke="#9370DB" stroke-width="1.3" fill="none" stroke-dasharray="0 0"/></g><g class="label name" transform="translate(-113.25, -289.875)" style=""><foreignObject width="226.5" height="24"><div xmlns="http://www.w3.org/1999/xhtml" style="display: table-cell; white-space: nowrap; line-height: 1.5; max-width: 354px; text-align: start;"><span class="nodeLabel"><p>PUBLIC_DATA_IMPORT_BATCHES</p></span></div></foreignObject></g><g class="label attribute-type" transform="translate(-357.25, -247.125)" style=""><foreignObject width="48.28125" height="24"><div xmlns="http://www.w3.org/1999/xhtml" style="display: table-cell; white-space: nowrap; line-height: 1.5; max-width: 155px; text-align: start;"><span class="nodeLabel"><p>BIGINT</p></span></div></foreignObject></g><g class="label attribute-name" transform="translate(-263.03125, -247.125)" style=""><foreignObject width="118.5" height="24"><div xmlns="http://www.w3.org/1999/xhtml" style="display: table-cell; white-space: nowrap; line-height: 1.5; max-width: 207px; text-align: start;"><span class="nodeLabel"><p>import_batch_id</p></span></div></foreignObject></g><g class="label attribute-keys" transform="translate(-119.53125, -247.125)" style=""><foreignObject width="18.140625" height="24"><div xmlns="http://www.w3.org/1999/xhtml" style="display: table-cell; white-space: nowrap; line-height: 1.5; max-width: 122px; text-align: start;"><span class="nodeLabel"><p>PK</p></span></div></foreignObject></g><g class="label attribute-comment" transform="translate(-76.390625, -247.125)" style=""><foreignObject width="0" height="0"><div xmlns="http://www.w3.org/1999/xhtml" style="display: table-cell; white-space: nowrap; line-height: 1.5; max-width: 100px; text-align: start;"><span class="nodeLabel"></span></div></foreignObject></g><g class="label attribute-type" transform="translate(-357.25, -204.375)" style=""><foreignObject width="65.3125" height="24"><div xmlns="http://www.w3.org/1999/xhtml" style="display: table-cell; white-space: nowrap; line-height: 1.5; max-width: 179px; text-align: start;"><span class="nodeLabel"><p>VARCHAR</p></span></div></foreignObject></g><g class="label attribute-name" transform="translate(-263.03125, -204.375)" style=""><foreignObject width="76.953125" height="24"><div xmlns="http://www.w3.org/1999/xhtml" style="display: table-cell; white-space: nowrap; line-height: 1.5; max-width: 170px; text-align: start;"><span class="nodeLabel"><p>source_api</p></span></div></foreignObject></g><g class="label attribute-keys" transform="translate(-119.53125, -204.375)" style=""><foreignObject width="0" height="0"><div xmlns="http://www.w3.org/1999/xhtml" style="display: table-cell; white-space: nowrap; line-height: 1.5; max-width: 100px; text-align: start;"><span class="nodeLabel"></span></div></foreignObject></g><g class="label attribute-comment" transform="translate(-76.390625, -204.375)" style=""><foreignObject width="200.421875" height="24"><div xmlns="http://www.w3.org/1999/xhtml" style="display: table-cell; white-space: nowrap; line-height: 1.5; max-width: 278px; text-align: start;"><span class="nodeLabel"><p>uq_import_batches_request</p></span></div></foreignObject></g><g class="label attribute-type" transform="translate(-357.25, -161.625)" style=""><foreignObject width="65.3125" height="24"><div xmlns="http://www.w3.org/1999/xhtml" style="display: table-cell; white-space: nowrap; line-height: 1.5; max-width: 179px; text-align: start;"><span class="nodeLabel"><p>VARCHAR</p></span></div></foreignObject></g><g class="label attribute-name" transform="translate(-263.03125, -161.625)" style=""><foreignObject width="59.171875" height="24"><div xmlns="http://www.w3.org/1999/xhtml" style="display: table-cell; white-space: nowrap; line-height: 1.5; max-width: 155px; text-align: start;"><span class="nodeLabel"><p>lawd_cd</p></span></div></foreignObject></g><g class="label attribute-keys" transform="translate(-119.53125, -161.625)" style=""><foreignObject width="0" height="0"><div xmlns="http://www.w3.org/1999/xhtml" style="display: table-cell; white-space: nowrap; line-height: 1.5; max-width: 100px; text-align: start;"><span class="nodeLabel"></span></div></foreignObject></g><g class="label attribute-comment" transform="translate(-76.390625, -161.625)" style=""><foreignObject width="433.640625" height="24"><div xmlns="http://www.w3.org/1999/xhtml" style="display: table-cell; white-space: nowrap; line-height: 1.5; max-width: 488px; text-align: start;"><span class="nodeLabel"><p>idx_import_batches_lawd_ymd, uq_import_batches_request</p></span></div></foreignObject></g><g class="label attribute-type" transform="translate(-357.25, -118.875)" style=""><foreignObject width="38.796875" height="24"><div xmlns="http://www.w3.org/1999/xhtml" style="display: table-cell; white-space: nowrap; line-height: 1.5; max-width: 146px; text-align: start;"><span class="nodeLabel"><p>CHAR</p></span></div></foreignObject></g><g class="label attribute-name" transform="translate(-263.03125, -118.875)" style=""><foreignObject width="69.25" height="24"><div xmlns="http://www.w3.org/1999/xhtml" style="display: table-cell; white-space: nowrap; line-height: 1.5; max-width: 164px; text-align: start;"><span class="nodeLabel"><p>deal_ymd</p></span></div></foreignObject></g><g class="label attribute-keys" transform="translate(-119.53125, -118.875)" style=""><foreignObject width="0" height="0"><div xmlns="http://www.w3.org/1999/xhtml" style="display: table-cell; white-space: nowrap; line-height: 1.5; max-width: 100px; text-align: start;"><span class="nodeLabel"></span></div></foreignObject></g><g class="label attribute-comment" transform="translate(-76.390625, -118.875)" style=""><foreignObject width="433.640625" height="24"><div xmlns="http://www.w3.org/1999/xhtml" style="display: table-cell; white-space: nowrap; line-height: 1.5; max-width: 488px; text-align: start;"><span class="nodeLabel"><p>idx_import_batches_lawd_ymd, uq_import_batches_request</p></span></div></foreignObject></g><g class="label attribute-type" transform="translate(-357.25, -76.125)" style=""><foreignObject width="65.3125" height="24"><div xmlns="http://www.w3.org/1999/xhtml" style="display: table-cell; white-space: nowrap; line-height: 1.5; max-width: 179px; text-align: start;"><span class="nodeLabel"><p>VARCHAR</p></span></div></foreignObject></g><g class="label attribute-name" transform="translate(-263.03125, -76.125)" style=""><foreignObject width="81.546875" height="24"><div xmlns="http://www.w3.org/1999/xhtml" style="display: table-cell; white-space: nowrap; line-height: 1.5; max-width: 174px; text-align: start;"><span class="nodeLabel"><p>house_type</p></span></div></foreignObject></g><g class="label attribute-keys" transform="translate(-119.53125, -76.125)" style=""><foreignObject width="0" height="0"><div xmlns="http://www.w3.org/1999/xhtml" style="display: table-cell; white-space: nowrap; line-height: 1.5; max-width: 100px; text-align: start;"><span class="nodeLabel"></span></div></foreignObject></g><g class="label attribute-comment" transform="translate(-76.390625, -76.125)" style=""><foreignObject width="200.421875" height="24"><div xmlns="http://www.w3.org/1999/xhtml" style="display: table-cell; white-space: nowrap; line-height: 1.5; max-width: 278px; text-align: start;"><span class="nodeLabel"><p>uq_import_batches_request</p></span></div></foreignObject></g><g class="label attribute-type" transform="translate(-357.25, -33.375)" style=""><foreignObject width="65.3125" height="24"><div xmlns="http://www.w3.org/1999/xhtml" style="display: table-cell; white-space: nowrap; line-height: 1.5; max-width: 179px; text-align: start;"><span class="nodeLabel"><p>VARCHAR</p></span></div></foreignObject></g><g class="label attribute-name" transform="translate(-263.03125, -33.375)" style=""><foreignObject width="71.03125" height="24"><div xmlns="http://www.w3.org/1999/xhtml" style="display: table-cell; white-space: nowrap; line-height: 1.5; max-width: 162px; text-align: start;"><span class="nodeLabel"><p>deal_type</p></span></div></foreignObject></g><g class="label attribute-keys" transform="translate(-119.53125, -33.375)" style=""><foreignObject width="0" height="0"><div xmlns="http://www.w3.org/1999/xhtml" style="display: table-cell; white-space: nowrap; line-height: 1.5; max-width: 100px; text-align: start;"><span class="nodeLabel"></span></div></foreignObject></g><g class="label attribute-comment" transform="translate(-76.390625, -33.375)" style=""><foreignObject width="200.421875" height="24"><div xmlns="http://www.w3.org/1999/xhtml" style="display: table-cell; white-space: nowrap; line-height: 1.5; max-width: 278px; text-align: start;"><span class="nodeLabel"><p>uq_import_batches_request</p></span></div></foreignObject></g><g class="label attribute-type" transform="translate(-357.25, 9.375)" style=""><foreignObject width="65.3125" height="24"><div xmlns="http://www.w3.org/1999/xhtml" style="display: table-cell; white-space: nowrap; line-height: 1.5; max-width: 179px; text-align: start;"><span class="nodeLabel"><p>VARCHAR</p></span></div></foreignObject></g><g class="label attribute-name" transform="translate(-263.03125, 9.375)" style=""><foreignObject width="42.796875" height="24"><div xmlns="http://www.w3.org/1999/xhtml" style="display: table-cell; white-space: nowrap; line-height: 1.5; max-width: 136px; text-align: start;"><span class="nodeLabel"><p>status</p></span></div></foreignObject></g><g class="label attribute-keys" transform="translate(-119.53125, 9.375)" style=""><foreignObject width="0" height="0"><div xmlns="http://www.w3.org/1999/xhtml" style="display: table-cell; white-space: nowrap; line-height: 1.5; max-width: 100px; text-align: start;"><span class="nodeLabel"></span></div></foreignObject></g><g class="label attribute-comment" transform="translate(-76.390625, 9.375)" style=""><foreignObject width="0" height="0"><div xmlns="http://www.w3.org/1999/xhtml" style="display: table-cell; white-space: nowrap; line-height: 1.5; max-width: 100px; text-align: start;"><span class="nodeLabel"></span></div></foreignObject></g><g class="label attribute-type" transform="translate(-357.25, 52.125)" style=""><foreignObject width="23.953125" height="24"><div xmlns="http://www.w3.org/1999/xhtml" style="display: table-cell; white-space: nowrap; line-height: 1.5; max-width: 127px; text-align: start;"><span class="nodeLabel"><p>INT</p></span></div></foreignObject></g><g class="label attribute-name" transform="translate(-263.03125, 52.125)" style=""><foreignObject width="83.125" height="24"><div xmlns="http://www.w3.org/1999/xhtml" style="display: table-cell; white-space: nowrap; line-height: 1.5; max-width: 174px; text-align: start;"><span class="nodeLabel"><p>total_count</p></span></div></foreignObject></g><g class="label attribute-keys" transform="translate(-119.53125, 52.125)" style=""><foreignObject width="0" height="0"><div xmlns="http://www.w3.org/1999/xhtml" style="display: table-cell; white-space: nowrap; line-height: 1.5; max-width: 100px; text-align: start;"><span class="nodeLabel"></span></div></foreignObject></g><g class="label attribute-comment" transform="translate(-76.390625, 52.125)" style=""><foreignObject width="0" height="0"><div xmlns="http://www.w3.org/1999/xhtml" style="display: table-cell; white-space: nowrap; line-height: 1.5; max-width: 100px; text-align: start;"><span class="nodeLabel"></span></div></foreignObject></g><g class="label attribute-type" transform="translate(-357.25, 94.875)" style=""><foreignObject width="23.953125" height="24"><div xmlns="http://www.w3.org/1999/xhtml" style="display: table-cell; white-space: nowrap; line-height: 1.5; max-width: 127px; text-align: start;"><span class="nodeLabel"><p>INT</p></span></div></foreignObject></g><g class="label attribute-name" transform="translate(-263.03125, 94.875)" style=""><foreignObject width="114.28125" height="24"><div xmlns="http://www.w3.org/1999/xhtml" style="display: table-cell; white-space: nowrap; line-height: 1.5; max-width: 202px; text-align: start;"><span class="nodeLabel"><p>imported_count</p></span></div></foreignObject></g><g class="label attribute-keys" transform="translate(-119.53125, 94.875)" style=""><foreignObject width="0" height="0"><div xmlns="http://www.w3.org/1999/xhtml" style="display: table-cell; white-space: nowrap; line-height: 1.5; max-width: 100px; text-align: start;"><span class="nodeLabel"></span></div></foreignObject></g><g class="label attribute-comment" transform="translate(-76.390625, 94.875)" style=""><foreignObject width="0" height="0"><div xmlns="http://www.w3.org/1999/xhtml" style="display: table-cell; white-space: nowrap; line-height: 1.5; max-width: 100px; text-align: start;"><span class="nodeLabel"></span></div></foreignObject></g><g class="label attribute-type" transform="translate(-357.25, 137.625)" style=""><foreignObject width="23.953125" height="24"><div xmlns="http://www.w3.org/1999/xhtml" style="display: table-cell; white-space: nowrap; line-height: 1.5; max-width: 127px; text-align: start;"><span class="nodeLabel"><p>INT</p></span></div></foreignObject></g><g class="label attribute-name" transform="translate(-263.03125, 137.625)" style=""><foreignObject width="103.3125" height="24"><div xmlns="http://www.w3.org/1999/xhtml" style="display: table-cell; white-space: nowrap; line-height: 1.5; max-width: 194px; text-align: start;"><span class="nodeLabel"><p>skipped_count</p></span></div></foreignObject></g><g class="label attribute-keys" transform="translate(-119.53125, 137.625)" style=""><foreignObject width="0" height="0"><div xmlns="http://www.w3.org/1999/xhtml" style="display: table-cell; white-space: nowrap; line-height: 1.5; max-width: 100px; text-align: start;"><span class="nodeLabel"></span></div></foreignObject></g><g class="label attribute-comment" transform="translate(-76.390625, 137.625)" style=""><foreignObject width="0" height="0"><div xmlns="http://www.w3.org/1999/xhtml" style="display: table-cell; white-space: nowrap; line-height: 1.5; max-width: 100px; text-align: start;"><span class="nodeLabel"></span></div></foreignObject></g><g class="label attribute-type" transform="translate(-357.25, 180.375)" style=""><foreignObject width="36.0625" height="24"><div xmlns="http://www.w3.org/1999/xhtml" style="display: table-cell; white-space: nowrap; line-height: 1.5; max-width: 141px; text-align: start;"><span class="nodeLabel"><p>TEXT</p></span></div></foreignObject></g><g class="label attribute-name" transform="translate(-263.03125, 180.375)" style=""><foreignObject width="104.484375" height="24"><div xmlns="http://www.w3.org/1999/xhtml" style="display: table-cell; white-space: nowrap; line-height: 1.5; max-width: 193px; text-align: start;"><span class="nodeLabel"><p>error_message</p></span></div></foreignObject></g><g class="label attribute-keys" transform="translate(-119.53125, 180.375)" style=""><foreignObject width="0" height="0"><div xmlns="http://www.w3.org/1999/xhtml" style="display: table-cell; white-space: nowrap; line-height: 1.5; max-width: 100px; text-align: start;"><span class="nodeLabel"></span></div></foreignObject></g><g class="label attribute-comment" transform="translate(-76.390625, 180.375)" style=""><foreignObject width="0" height="0"><div xmlns="http://www.w3.org/1999/xhtml" style="display: table-cell; white-space: nowrap; line-height: 1.5; max-width: 100px; text-align: start;"><span class="nodeLabel"></span></div></foreignObject></g><g class="label attribute-type" transform="translate(-357.25, 223.125)" style=""><foreignObject width="69.21875" height="24"><div xmlns="http://www.w3.org/1999/xhtml" style="display: table-cell; white-space: nowrap; line-height: 1.5; max-width: 181px; text-align: start;"><span class="nodeLabel"><p>DATETIME</p></span></div></foreignObject></g><g class="label attribute-name" transform="translate(-263.03125, 223.125)" style=""><foreignObject width="94.9375" height="24"><div xmlns="http://www.w3.org/1999/xhtml" style="display: table-cell; white-space: nowrap; line-height: 1.5; max-width: 182px; text-align: start;"><span class="nodeLabel"><p>requested_at</p></span></div></foreignObject></g><g class="label attribute-keys" transform="translate(-119.53125, 223.125)" style=""><foreignObject width="0" height="0"><div xmlns="http://www.w3.org/1999/xhtml" style="display: table-cell; white-space: nowrap; line-height: 1.5; max-width: 100px; text-align: start;"><span class="nodeLabel"></span></div></foreignObject></g><g class="label attribute-comment" transform="translate(-76.390625, 223.125)" style=""><foreignObject width="0" height="0"><div xmlns="http://www.w3.org/1999/xhtml" style="display: table-cell; white-space: nowrap; line-height: 1.5; max-width: 100px; text-align: start;"><span class="nodeLabel"></span></div></foreignObject></g><g class="label attribute-type" transform="translate(-357.25, 265.875)" style=""><foreignObject width="69.21875" height="24"><div xmlns="http://www.w3.org/1999/xhtml" style="display: table-cell; white-space: nowrap; line-height: 1.5; max-width: 181px; text-align: start;"><span class="nodeLabel"><p>DATETIME</p></span></div></foreignObject></g><g class="label attribute-name" transform="translate(-263.03125, 265.875)" style=""><foreignObject width="99.28125" height="24"><div xmlns="http://www.w3.org/1999/xhtml" style="display: table-cell; white-space: nowrap; line-height: 1.5; max-width: 187px; text-align: start;"><span class="nodeLabel"><p>completed_at</p></span></div></foreignObject></g><g class="label attribute-keys" transform="translate(-119.53125, 265.875)" style=""><foreignObject width="0" height="0"><div xmlns="http://www.w3.org/1999/xhtml" style="display: table-cell; white-space: nowrap; line-height: 1.5; max-width: 100px; text-align: start;"><span class="nodeLabel"></span></div></foreignObject></g><g class="label attribute-comment" transform="translate(-76.390625, 265.875)" style=""><foreignObject width="0" height="0"><div xmlns="http://www.w3.org/1999/xhtml" style="display: table-cell; white-space: nowrap; line-height: 1.5; max-width: 100px; text-align: start;"><span class="nodeLabel"></span></div></foreignObject></g><g class="divider"><path d="M-369.75 -256.50005 L-369.75 -256.49995 L369.75 -256.49995 L369.75 -256.50005" stroke="none" stroke-width="0" fill="#ECECFF" fill-rule="evenodd"/><path d="M-369.75 -256.50005 C-369.75 -256.5000115911741, -369.75 -256.4999731823481, -369.75 -256.49995 M-369.75 -256.50005 C-369.75 -256.50002261861306, -369.75 -256.49999523722613, -369.75 -256.49995 M-369.75 -256.49995 C-113.7528810364737 -256.49995, 142.2442379270526 -256.49995, 369.75 -256.49995 M-369.75 -256.49995 C-166.4469100530573 -256.49995, 36.85617989388538 -256.49995, 369.75 -256.49995 M369.75 -256.49995 C369.75 -256.49997905480626, 369.75 -256.50000810961257, 369.75 -256.50005 M369.75 -256.49995 C369.75 -256.49997975494404, 369.75 -256.50000950988806, 369.75 -256.50005 M369.75 -256.50005 C90.68955296891716 -256.50005, -188.3708940621657 -256.50005, -369.75 -256.50005 M369.75 -256.50005 C210.53930411573018 -256.50005, 51.32860823146035 -256.50005, -369.75 -256.50005" stroke="#9370DB" stroke-width="1.3" fill="none" stroke-dasharray="0 0"/></g><g class="divider"><path d="M-275.5313 -256.5 L-275.5312 -256.5 L-275.5312 299.25 L-275.5313 299.25" stroke="none" stroke-width="0" fill="#ECECFF" fill-rule="evenodd"/><path d="M-275.5313 -256.5 C-275.5312741784518 -256.5, -275.5312483569036 -256.5, -275.5312 -256.5 M-275.5313 -256.5 C-275.53126814403765 -256.5, -275.5312362880754 -256.5, -275.5312 -256.5 M-275.5312 -256.5 C-275.5312 -68.11668918045498, -275.5312 120.26662163909003, -275.5312 299.25 M-275.5312 -256.5 C-275.5312 -98.6700585241118, -275.5312 59.15988295177641, -275.5312 299.25 M-275.5312 299.25 C-275.53122327710554 299.25, -275.53124655421107 299.25, -275.5313 299.25 M-275.5312 299.25 C-275.5312335079933 299.25, -275.5312670159866 299.25, -275.5313 299.25 M-275.5313 299.25 C-275.5313 126.45537421882466, -275.5313 -46.33925156235068, -275.5313 -256.5 M-275.5313 299.25 C-275.5313 102.10445212923452, -275.5313 -95.04109574153097, -275.5313 -256.5" stroke="#9370DB" stroke-width="1.3" fill="none" stroke-dasharray="0 0"/></g><g class="divider"><path d="M-132.0313 -256.5 L-132.0312 -256.5 L-132.0312 299.25 L-132.0313 299.25" stroke="none" stroke-width="0" fill="#ECECFF" fill-rule="evenodd"/><path d="M-132.0313 -256.5 C-132.03127698776177 -256.5, -132.03125397552355 -256.5, -132.0312 -256.5 M-132.0313 -256.5 C-132.03126201243708 -256.5, -132.03122402487418 -256.5, -132.0312 -256.5 M-132.0312 -256.5 C-132.0312 -78.37128214250464, -132.0312 99.75743571499072, -132.0312 299.25 M-132.0312 -256.5 C-132.0312 -92.98167183324244, -132.0312 70.53665633351511, -132.0312 299.25 M-132.0312 299.25 C-132.0312230628918 299.25, -132.0312461257836 299.25, -132.0313 299.25 M-132.0312 299.25 C-132.03122865267684 299.25, -132.03125730535365 299.25, -132.0313 299.25 M-132.0313 299.25 C-132.0313 77.12557263461738, -132.0313 -144.99885473076523, -132.0313 -256.5 M-132.0313 299.25 C-132.0313 151.41702286109907, -132.0313 3.584045722198141, -132.0313 -256.5" stroke="#9370DB" stroke-width="1.3" fill="none" stroke-dasharray="0 0"/></g><g class="divider"><path d="M-88.890675 -256.5 L-88.890575 -256.5 L-88.890575 299.25 L-88.890675 299.25" stroke="none" stroke-width="0" fill="#ECECFF" fill-rule="evenodd"/><path d="M-88.890675 -256.5 C-88.89065118311524 -256.5, -88.89062736623046 -256.5, -88.890575 -256.5 M-88.890675 -256.5 C-88.89064700506933 -256.5, -88.89061901013865 -256.5, -88.890575 -256.5 M-88.890575 -256.5 C-88.890575 -82.60352527069304, -88.890575 91.29294945861392, -88.890575 299.25 M-88.890575 -256.5 C-88.890575 -114.68716192081874, -88.890575 27.125676158362523, -88.890575 299.25 M-88.890575 299.25 C-88.89059876578239 299.25, -88.89062253156476 299.25, -88.890675 299.25 M-88.890575 299.25 C-88.8906071822134 299.25, -88.8906393644268 299.25, -88.890675 299.25 M-88.890675 299.25 C-88.890675 139.62429639142522, -88.890675 -20.001407217149563, -88.890675 -256.5 M-88.890675 299.25 C-88.890675 92.5532894019311, -88.890675 -114.14342119613781, -88.890675 -256.5" stroke="#9370DB" stroke-width="1.3" fill="none" stroke-dasharray="0 0"/></g><g class="divider"><path d="M-369.75 -256.50005 L-369.75 -256.49995 L369.75 -256.49995 L369.75 -256.50005" stroke="none" stroke-width="0" fill="#ECECFF" fill-rule="evenodd"/><path d="M-369.75 -256.50005 C-369.75 -256.5000221662205, -369.75 -256.4999943324411, -369.75 -256.49995 M-369.75 -256.50005 C-369.75 -256.50001344023707, -369.75 -256.49997688047415, -369.75 -256.49995 M-369.75 -256.49995 C-112.10263171235016 -256.49995, 145.54473657529968 -256.49995, 369.75 -256.49995 M-369.75 -256.49995 C-104.63710472798834 -256.49995, 160.4757905440233 -256.49995, 369.75 -256.49995 M369.75 -256.49995 C369.75 -256.4999865216832, 369.75 -256.5000230433663, 369.75 -256.50005 M369.75 -256.49995 C369.75 -256.4999799144163, 369.75 -256.50000982883256, 369.75 -256.50005 M369.75 -256.50005 C121.91408412225672 -256.50005, -125.92183175548655 -256.50005, -369.75 -256.50005 M369.75 -256.50005 C100.18399228246216 -256.50005, -169.3820154350757 -256.50005, -369.75 -256.50005" stroke="#9370DB" stroke-width="1.3" fill="none" stroke-dasharray="0 0"/></g></g></g></g></g><defs><filter id="my-svg-drop-shadow" height="130%" width="130%"><feDropShadow dx="4" dy="4" stdDeviation="0" flood-opacity="0.06" flood-color="#000000"/></filter></defs><defs><filter id="my-svg-drop-shadow-small" height="150%" width="150%"><feDropShadow dx="2" dy="2" stdDeviation="0" flood-opacity="0.06" flood-color="#000000"/></filter></defs></svg>